{
    "asset" : {
        "generator" : "Khronos glTF Blender I/O v0.9.36",
        "version" : "2.0"
    },
    "scene" : 0,
    "scenes" : [
        {
            "name" : "Scene",
            "nodes" : [
                0
            ]
        }
    ],
    "nodes" : [
        {
            "mesh" : 0,
            "name" : "Suzanne"
        }
    ],
    "meshes" : [
        {
            "name" : "Suzanne",
            "primitives" : [
                {
                    "attributes" : {
                        "POSITION" : 0
                    },
                    "indices" : 1
                }
            ]
        }
    ],
    "accessors" : [
        {
            "bufferView" : 0,
            "componentType" : 5126,
            "count" : 2901,
            "max" : [
                1.3671875,
                0.984375,
                0.8515625
            ],
            "min" : [
                -1.3671875,
                -0.984375,
                -0.8515625
            ],
            "type" : "VEC3"
        },
        {
            "bufferView" : 1,
            "componentType" : 5123,
            "count" : 2901,
            "type" : "SCALAR"
        }
    ],
    "bufferViews" : [
        {
            "buffer" : 0,
            "byteLength" : 34812,
            "byteOffset" : 0
        },
        {
            "buffer" : 0,
            "byteLength" : 5802,
            "byteOffset" : 34812
        }
    ],
    "buffers" : [
        {
            "byteLength" : 40616,
            "uri" : "data:application/octet-stream;base64,"
        }
    ]
}
