{
    "asset" : {
        "generator" : "Khronos glTF Blender I/O v0.9.36",
        "version" : "2.0"
    },
    "scene" : 0,
    "scenes" : [
        {
            "name" : "Scene",
            "nodes" : [
                0,
                1,
                2,
                3
            ]
        }
    ],
    "nodes" : [
        {
            "mesh" : 0,
            "name" : "Cube",
            "translation" : [
                0,
                0,
                -12.610044479370117
            ]
        },
        {
            "mesh" : 1,
            "name" : "Suzanne",
            "translation" : [
                9.163969039916992,
                0,
                7.569596767425537
            ]
        },
        {
            "mesh" : 2,
            "name" : "Plane",
            "scale" : [
                33.744598388671875,
                1,
                41.51569747924805
            ],
            "translation" : [
                0,
                -3.6883840560913086,
                0
            ]
        },
        {
            "mesh" : 3,
            "name" : "Icosphere",
            "translation" : [
                -7.698036193847656,
                1.1504374742507935,
                6.624192237854004
            ]
        }
    ],
    "meshes" : [
        {
            "name" : "Cube.001",
            "primitives" : [
                {
                    "attributes" : {
                        "POSITION" : 0
                    },
                    "indices" : 1
                }
            ]
        },
        {
            "name" : "Suzanne.001",
            "primitives" : [
                {
                    "attributes" : {
                        "POSITION" : 2
                    },
                    "indices" : 3
                }
            ]
        },
        {
            "name" : "Plane",
            "primitives" : [
                {
                    "attributes" : {
                        "POSITION" : 4
                    },
                    "indices" : 5
                },
                {
                    "attributes" : {
                        "POSITION" : 6
                    },
                    "indices" : 7
                },
                {
                    "attributes" : {
                        "POSITION" : 8
                    },
                    "indices" : 9
                }
            ]
        },
        {
            "name" : "Icosphere",
            "primitives" : [
                {
                    "attributes" : {
                        "POSITION" : 10
                    },
                    "indices" : 11
                }
            ]
        }
    ],
    "accessors" : [
        {
            "bufferView" : 0,
            "componentType" : 5126,
            "count" : 24,
            "max" : [
                1,
                1,
                1
            ],
            "min" : [
                -1,
                -1,
                -1
            ],
            "type" : "VEC3"
        },
        {
            "bufferView" : 1,
            "componentType" : 5123,
            "count" : 36,
            "type" : "SCALAR"
        },
        {
            "bufferView" : 2,
            "componentType" : 5126,
            "count" : 2901,
            "max" : [
                1.3671875,
                0.984375,
                0.8515625
            ],
            "min" : [
                -1.3671875,
                -0.984375,
                -0.8515625
            ],
            "type" : "VEC3"
        },
        {
            "bufferView" : 3,
            "componentType" : 5123,
            "count" : 2901,
            "type" : "SCALAR"
        },
        {
            "bufferView" : 4,
            "componentType" : 5126,
            "count" : 65535,
            "max" : [
                0.9166547060012817,
                -0.07893353700637817,
                0.9166668653488159
            ],
            "min" : [
                -0.9166638255119324,
                -0.48580440878868103,
                -0.6666098833084106
            ],
            "type" : "VEC3"
        },
        {
            "bufferView" : 5,
            "componentType" : 5123,
            "count" : 98301,
            "type" : "SCALAR"
        },
        {
            "bufferView" : 6,
            "componentType" : 5126,
            "count" : 32768,
            "max" : [
                0.9166547060012817,
                -0.08552944660186768,
                8.664838446748035e-07
            ],
            "min" : [
                -0.6663915514945984,
                -0.48580440878868103,
                -0.9166668653488159
            ],
            "type" : "VEC3"
        },
        {
            "bufferView" : 7,
            "componentType" : 5123,
            "count" : 49152,
            "type" : "SCALAR"
        },
        {
            "bufferView" : 8,
            "componentType" : 5126,
            "count" : 3,
            "max" : [
                0.6562422513961792,
                -0.18901950120925903,
                0.6562483310699463
            ],
            "min" : [
                0.6458334922790527,
                -0.48580440878868103,
                0.6355847120285034
            ],
            "type" : "VEC3"
        },
        {
            "bufferView" : 9,
            "componentType" : 5123,
            "count" : 3,
            "type" : "SCALAR"
        },
        {
            "bufferView" : 10,
            "componentType" : 5126,
            "count" : 240,
            "max" : [
                0.9510578513145447,
                1,
                0.9999999403953552
            ],
            "min" : [
                -0.9510578513145447,
                -1,
                -0.9999999403953552
            ],
            "type" : "VEC3"
        },
        {
            "bufferView" : 11,
            "componentType" : 5123,
            "count" : 240,
            "type" : "SCALAR"
        }
    ],
    "bufferViews" : [
        {
            "buffer" : 0,
            "byteLength" : 288,
            "byteOffset" : 0
        },
        {
            "buffer" : 0,
            "byteLength" : 72,
            "byteOffset" : 288
        },
        {
            "buffer" : 0,
            "byteLength" : 34812,
            "byteOffset" : 360
        },
        {
            "buffer" : 0,
            "byteLength" : 5802,
            "byteOffset" : 35172
        },
        {
            "buffer" : 0,
            "byteLength" : 786420,
            "byteOffset" : 40976
        },
        {
            "buffer" : 0,
            "byteLength" : 196602,
            "byteOffset" : 827396
        },
        {
            "buffer" : 0,
            "byteLength" : 393216,
            "byteOffset" : 1024000
        },
        {
            "buffer" : 0,
            "byteLength" : 98304,
            "byteOffset" : 1417216
        },
        {
            "buffer" : 0,
            "byteLength" : 36,
            "byteOffset" : 1515520
        },
        {
            "buffer" : 0,
            "byteLength" : 6,
            "byteOffset" : 1515556
        },
        {
            "buffer" : 0,
            "byteLength" : 2880,
            "byteOffset" : 1515564
        },
        {
            "buffer" : 0,
            "byteLength" : 480,
            "byteOffset" : 1518444
        }
    ],
    "buffers" : [
        {
            "byteLength" : 1518924,
            "uri" : "data:application/octet-stream;base64,"
        }
    ]
}
